<svg xmlns="http://www.w3.org/2000/svg" version="1.1" xmlns:xlink="http://www.w3.org/1999/xlink" xmlns:svgjs="http://svgjs.dev/svgjs" width="1000" height="159" viewBox="0 0 1000 159"><g transform="matrix(1,0,0,1,-0.6060606060606233,-0.18378628322230384)"><svg viewBox="0 0 396 63" data-background-color="#ffffff" preserveAspectRatio="xMidYMid meet" height="159" width="1000" xmlns="http://www.w3.org/2000/svg" xmlns:xlink="http://www.w3.org/1999/xlink"><g id="tight-bounds" transform="matrix(1,0,0,1,0.2400000000000091,0.07282098014468374)"><svg viewBox="0 0 395.52 62.854358039710625" height="62.854358039710625" width="395.52"><g><svg viewBox="0 0 494.88231711925624 78.64459533711405" height="62.854358039710625" width="395.52"><g><rect width="5.131874651753497" height="68.2876370510397" x="408.954226837051" y="5.17847914303718" fill="#4d331f" opacity="1" stroke-width="0" stroke="transparent" fill-opacity="1" class="rect-o-0" data-fill-palette-color="primary" rx="1%" id="o-0" data-palette-color="#4d331f"></rect></g><g transform="matrix(1,0,0,1,0,10.869115563957156)"><svg viewBox="0 0 395.52 56.906364209199744" height="56.906364209199744" width="395.52"><g id="textblocktransform"><svg viewBox="0 0 395.52 56.906364209199744" height="56.906364209199744" width="395.52" id="textblock"><g><svg viewBox="0 0 395.52 56.906364209199744" height="56.906364209199744" width="395.52"><g transform="matrix(1,0,0,1,0,0)"><svg width="395.52" viewBox="2.549999952316284 -33.95000076293945 238.02999877929688 34.25" height="56.906364209199744" data-palette-color="#4d331f"><path d="M17.4 0.3Q13.2 0.3 9.85-1.25 6.5-2.8 4.53-5.83 2.55-8.85 2.55-13.15L2.55-13.15Q2.55-16.15 3.6-19.65L3.6-19.65Q5.9-27.15 10.55-30.48 15.2-33.8 20.5-33.8L20.5-33.8Q23.35-33.8 25.55-32.95 27.75-32.1 29.6-30.5L29.6-30.5 30.95-31.55Q32.3-32.6 33.23-33 34.15-33.4 35.3-33.4L35.3-33.4Q36.55-33.4 37.3-32.85 38.05-32.3 38.05-31.25L38.05-31.25Q38.05-30.7 37.85-30.15L37.85-30.15 35.05-22.35Q34.6-21 33.98-20.45 33.35-19.9 32.1-19.9L32.1-19.9Q30.8-19.9 29.98-20.83 29.15-21.75 28.1-24L28.1-24Q26.9-26.35 26.15-27.1 25.4-27.85 23.95-27.85L23.95-27.85Q21.9-27.85 20-25.33 18.1-22.8 16.55-17.75L16.55-17.75Q15.25-13.5 15.25-10.65L15.25-10.65Q15.25-8.15 16.2-6.93 17.15-5.7 18.75-5.7L18.75-5.7Q21.1-5.7 22.63-6.75 24.15-7.8 25.75-9.6L25.75-9.6Q26.75-10.7 27.38-11.23 28-11.75 28.7-11.75L28.7-11.75Q29.6-11.75 30.6-10.85 31.6-9.95 31.55-9.05L31.55-9.05Q31.6-7.95 29.78-5.65 27.95-3.35 24.73-1.53 21.5 0.3 17.4 0.3L17.4 0.3ZM67.55-22.9L62.65-5.9Q62.45-5.25 62.45-4.6L62.45-4.6Q62.45-4.05 62.6-3.68 62.75-3.3 62.92-3.08 63.1-2.85 63.15-2.75L63.15-2.75Q63.65-2.25 63.65-1.75L63.65-1.75Q63.65-1.65 63.55-1.25L63.55-1.25Q63.35-0.55 62.67-0.28 62 0 60.6 0L60.6 0 48.75 0Q47.7 0 47.12-0.35 46.55-0.7 46.55-1.3L46.55-1.3Q46.55-1.6 46.7-1.95L46.7-1.95Q46.85-2.35 47.12-2.58 47.4-2.8 47.9-3.1L47.9-3.1Q48.7-3.55 49.2-4.1 49.7-4.65 50.05-5.9L50.05-5.9 51.35-10.2 43.55-10.2 42.2-7.35Q41.35-5.5 41.35-4.45L41.35-4.45Q41.35-3.85 41.55-3.48 41.75-3.1 42.15-2.7L42.15-2.7Q42.5-2.3 42.62-2.02 42.75-1.75 42.65-1.3L42.65-1.3Q42.45-0.55 41.82-0.28 41.2 0 39.85 0L39.85 0 32.4 0Q31.25 0 30.65-0.43 30.05-0.85 30.05-1.55L30.05-1.55Q30.05-2.35 30.62-2.83 31.2-3.3 32.35-3.85L32.35-3.85Q33.85-4.6 34.75-5.33 35.65-6.05 36.3-7.35L36.3-7.35 45.2-25.8Q47.25-30.1 50.02-32.02 52.8-33.95 57.35-33.95L57.35-33.95Q62.45-33.95 65.25-31.88 68.05-29.8 68.05-26.1L68.05-26.1Q68.05-24.55 67.55-22.9L67.55-22.9ZM45.85-15.2L52.85-15.2 55.5-24Q55.7-24.6 55.7-25.25L55.7-25.25Q55.7-26.2 55.17-26.68 54.65-27.15 53.7-27.15L53.7-27.15Q52.5-27.15 51.65-26.45 50.8-25.75 49.95-23.95L49.95-23.95 45.85-15.2ZM105.45-33.3Q107.5-33.3 107.5-32L107.5-32Q107.5-31.65 107.45-31.5L107.45-31.5Q107.3-31 107-30.73 106.7-30.45 106.15-30.1L106.15-30.1Q105.4-29.65 104.9-29.1 104.4-28.55 104.05-27.4L104.05-27.4 97.84-5.2Q97-2.2 95.72-1 94.45 0.2 92.2 0.2L92.2 0.2Q90.2 0.2 88.87-0.98 87.55-2.15 86.4-4.6L86.4-4.6 78.84-20.5 74.65-5.9Q74.5-5.25 74.5-4.75L74.5-4.75Q74.5-4.1 74.72-3.68 74.95-3.25 75.34-2.8L75.34-2.8Q75.9-2.15 75.9-1.7L75.9-1.7Q75.9-1.4 75.84-1.25L75.84-1.25Q75.65-0.55 74.95-0.28 74.25 0 72.84 0L72.84 0 67.4 0Q65.34 0 65.34-1.3L65.34-1.3Q65.34-1.65 65.4-1.8L65.4-1.8Q65.55-2.3 65.84-2.58 66.15-2.85 66.7-3.2L66.7-3.2Q67.45-3.65 67.95-4.2 68.45-4.75 68.8-5.9L68.8-5.9 75.15-28.35 74.34-30Q73.84-31 73.84-31.75L73.84-31.75Q73.84-33.3 75.84-33.3L75.84-33.3 83.25-33.3Q84.84-33.3 85.67-32.58 86.5-31.85 87.45-30L87.45-30 94.75-15.35 98.2-27.4Q98.34-28.1 98.34-28.55L98.34-28.55Q98.34-29.2 98.12-29.63 97.9-30.05 97.5-30.5L97.5-30.5Q96.95-31.15 96.95-31.6L96.95-31.6Q96.95-31.9 97-32.05L97-32.05Q97.2-32.75 97.9-33.02 98.59-33.3 100-33.3L100-33.3 105.45-33.3ZM138.29-22.9L133.39-5.9Q133.19-5.25 133.19-4.6L133.19-4.6Q133.19-4.05 133.34-3.68 133.49-3.3 133.67-3.08 133.84-2.85 133.89-2.75L133.89-2.75Q134.39-2.25 134.39-1.75L134.39-1.75Q134.39-1.65 134.29-1.25L134.29-1.25Q134.09-0.55 133.42-0.28 132.74 0 131.34 0L131.34 0 119.49 0Q118.44 0 117.87-0.35 117.29-0.7 117.29-1.3L117.29-1.3Q117.29-1.6 117.44-1.95L117.44-1.95Q117.59-2.35 117.87-2.58 118.14-2.8 118.64-3.1L118.64-3.1Q119.44-3.55 119.94-4.1 120.44-4.65 120.79-5.9L120.79-5.9 122.09-10.2 114.29-10.2 112.94-7.35Q112.09-5.5 112.09-4.45L112.09-4.45Q112.09-3.85 112.29-3.48 112.49-3.1 112.89-2.7L112.89-2.7Q113.24-2.3 113.37-2.02 113.49-1.75 113.39-1.3L113.39-1.3Q113.19-0.55 112.57-0.28 111.94 0 110.59 0L110.59 0 103.14 0Q101.99 0 101.39-0.43 100.79-0.85 100.79-1.55L100.79-1.55Q100.79-2.35 101.37-2.83 101.94-3.3 103.09-3.85L103.09-3.85Q104.59-4.6 105.49-5.33 106.39-6.05 107.04-7.35L107.04-7.35 115.94-25.8Q117.99-30.1 120.77-32.02 123.54-33.95 128.09-33.95L128.09-33.95Q133.19-33.95 135.99-31.88 138.79-29.8 138.79-26.1L138.79-26.1Q138.79-24.55 138.29-22.9L138.29-22.9ZM116.59-15.2L123.59-15.2 126.24-24Q126.44-24.6 126.44-25.25L126.44-25.25Q126.44-26.2 125.92-26.68 125.39-27.15 124.44-27.15L124.44-27.15Q123.24-27.15 122.39-26.45 121.54-25.75 120.69-23.95L120.69-23.95 116.59-15.2ZM156.44-33.6Q159.24-33.6 161.62-32.93 163.99-32.25 166.44-30.8L166.44-30.8 167.59-31.75Q168.79-32.7 169.56-33.05 170.34-33.4 171.34-33.4L171.34-33.4Q172.54-33.4 173.24-32.88 173.94-32.35 173.94-31.35L173.94-31.35Q173.94-30.95 173.79-30.5L173.79-30.5 171.69-23.6Q171.34-22.4 170.81-21.9 170.29-21.4 169.24-21.4L169.24-21.4Q168.14-21.4 167.31-22.08 166.49-22.75 164.74-24.85L164.74-24.85Q162.99-26.85 161.56-27.68 160.14-28.5 158.64-28.5L158.64-28.5Q157.54-28.5 156.79-27.78 156.04-27.05 156.04-26L156.04-26Q156.04-24.8 157.24-23.78 158.44-22.75 160.99-21.2L160.99-21.2Q163.59-19.65 165.29-18.4 166.99-17.15 168.19-15.3 169.39-13.45 169.39-11.05L169.39-11.05Q169.39-9.5 168.89-7.95L168.89-7.95Q167.69-3.95 164.24-1.88 160.79 0.2 156.19 0.2L156.19 0.2Q152.74 0.2 150.39-0.6 148.04-1.4 145.59-3.3L145.59-3.3 143.79-1.8Q142.54-0.75 141.74-0.38 140.94 0 139.94 0L139.94 0Q138.79 0 138.12-0.55 137.44-1.1 137.44-2.05L137.44-2.05Q137.44-2.55 137.64-3.1L137.64-3.1 140.09-10.55Q140.49-11.85 141.19-12.4 141.89-12.95 142.99-12.95L142.99-12.95Q144.14-12.95 145.06-12.15 145.99-11.35 147.49-9.25L147.49-9.25Q149.09-6.95 150.47-6.05 151.84-5.15 153.74-5.15L153.74-5.15Q155.09-5.15 155.81-5.58 156.54-6 156.84-6.95L156.84-6.95Q156.94-7.2 156.94-7.7L156.94-7.7Q156.94-8.9 155.79-9.9 154.64-10.9 152.24-12.3L152.24-12.3Q149.69-13.85 148.09-15.08 146.49-16.3 145.31-18.15 144.14-20 144.14-22.5L144.14-22.5Q144.14-24.25 144.69-25.95L144.69-25.95Q145.74-29.4 148.99-31.5 152.24-33.6 156.44-33.6L156.44-33.6ZM212.24-33.3Q214.99-33.3 214.99-31.05L214.99-31.05Q214.99-30.35 214.69-29.3L214.69-29.3 213.49-25.25Q212.94-23.4 212.14-22.65 211.34-21.9 209.84-21.9L209.84-21.9Q208.59-21.9 207.91-22.55 207.24-23.2 206.64-24.6L206.64-24.6 205.79-26.65Q205.39-27.6 204.94-27.95 204.49-28.3 203.54-28.3L203.54-28.3 202.39-28.3 196.04-5.95Q195.89-5.3 195.89-4.8L195.89-4.8Q195.89-4.2 196.06-3.8 196.24-3.4 196.59-2.95L196.59-2.95Q197.04-2.25 197.04-1.8L197.04-1.8Q197.04-1.7 196.94-1.3L196.94-1.3Q196.69-0.65 195.96-0.35 195.24-0.05 193.89-0.05L193.89-0.05 182.14-0.05Q181.09-0.05 180.51-0.4 179.94-0.75 179.94-1.4L179.94-1.4Q179.94-1.7 180.09-2L180.09-2Q180.29-2.45 180.56-2.68 180.84-2.9 181.39-3.25L181.39-3.25Q182.14-3.7 182.64-4.25 183.14-4.8 183.49-5.95L183.49-5.95 189.79-28.3 188.64-28.3Q187.54-28.3 186.84-27.95 186.14-27.6 185.34-26.65L185.34-26.65 183.69-24.6Q182.54-23.25 181.46-22.58 180.39-21.9 179.14-21.9L179.14-21.9Q177.99-21.9 177.34-22.5 176.69-23.1 176.69-24.15L176.69-24.15Q176.69-24.65 176.84-25.25L176.84-25.25 178.14-29.8Q178.54-31.2 179.04-31.93 179.54-32.65 180.46-32.98 181.39-33.3 183.09-33.3L183.09-33.3 212.24-33.3ZM240.08-22.9L235.19-5.9Q234.98-5.25 234.98-4.6L234.98-4.6Q234.98-4.05 235.13-3.68 235.28-3.3 235.46-3.08 235.63-2.85 235.69-2.75L235.69-2.75Q236.19-2.25 236.19-1.75L236.19-1.75Q236.19-1.65 236.08-1.25L236.08-1.25Q235.88-0.55 235.21-0.28 234.53 0 233.13 0L233.13 0 221.28 0Q220.23 0 219.66-0.35 219.08-0.7 219.08-1.3L219.08-1.3Q219.08-1.6 219.23-1.95L219.23-1.95Q219.38-2.35 219.66-2.58 219.94-2.8 220.44-3.1L220.44-3.1Q221.23-3.55 221.73-4.1 222.23-4.65 222.58-5.9L222.58-5.9 223.88-10.2 216.08-10.2 214.73-7.35Q213.88-5.5 213.88-4.45L213.88-4.45Q213.88-3.85 214.08-3.48 214.28-3.1 214.69-2.7L214.69-2.7Q215.03-2.3 215.16-2.02 215.28-1.75 215.19-1.3L215.19-1.3Q214.98-0.55 214.36-0.28 213.73 0 212.38 0L212.38 0 204.94 0Q203.78 0 203.19-0.43 202.58-0.85 202.58-1.55L202.58-1.55Q202.58-2.35 203.16-2.83 203.73-3.3 204.88-3.85L204.88-3.85Q206.38-4.6 207.28-5.33 208.19-6.05 208.83-7.35L208.83-7.35 217.73-25.8Q219.78-30.1 222.56-32.02 225.33-33.95 229.88-33.95L229.88-33.95Q234.98-33.95 237.78-31.88 240.58-29.8 240.58-26.1L240.58-26.1Q240.58-24.55 240.08-22.9L240.08-22.9ZM218.38-15.2L225.38-15.2 228.03-24Q228.23-24.6 228.23-25.25L228.23-25.25Q228.23-26.2 227.71-26.68 227.19-27.15 226.23-27.15L226.23-27.15Q225.03-27.15 224.19-26.45 223.33-25.75 222.48-23.95L222.48-23.95 218.38-15.2Z" opacity="1" transform="matrix(1,0,0,1,0,0)" fill="#4d331f" class="undefined-text-0" data-fill-palette-color="primary" id="text-0"></path></svg></g></svg></g></svg></g></svg></g><g transform="matrix(1,0,0,1,427.52032832585553,0)"><svg viewBox="0 0 67.36198879340071 78.64459533711405" height="78.64459533711405" width="67.36198879340071"><g><svg xmlns="http://www.w3.org/2000/svg" xmlns:xlink="http://www.w3.org/1999/xlink" version="1.1" x="0" y="0" viewBox="8.260810852050781 1.2699966430664062 83.47808074951172 97.46000671386719" enable-background="new 0 0 100 100" xml:space="preserve" height="78.64459533711405" width="67.36198879340071" class="icon-icon-0" data-fill-palette-color="accent" id="icon-0"><g fill="#e6b17e" data-fill-palette-color="accent"><rect x="76.023" y="73.375" width="13.836" height="9.322" fill="#e6b17e" data-fill-palette-color="accent"></rect><rect x="80.144" y="86.032" width="9.323" height="12.698" fill="#e6b17e" data-fill-palette-color="accent"></rect><rect x="80.144" y="56.222" width="9.323" height="13.641" fill="#e6b17e" data-fill-palette-color="accent"></rect><polygon points="58.649,73.375 58.649,82.697 50.001,82.697 41.352,82.697 41.352,73.375 50.001,73.375  " fill="#e6b17e" data-fill-palette-color="accent"></polygon><polygon points="55.273,86.032 55.273,98.73 50.001,98.73 44.729,98.73 44.729,86.032 50.001,86.032  " fill="#e6b17e" data-fill-palette-color="accent"></polygon><polygon points="55.273,56.222 55.273,69.863 50.001,69.863 44.729,69.863 44.729,56.222 50.001,56.222  " fill="#e6b17e" data-fill-palette-color="accent"></polygon><rect x="59.202" y="89.232" width="16.821" height="9.323" fill="#e6b17e" data-fill-palette-color="accent"></rect><rect x="59.202" y="56.792" width="16.821" height="9.321" fill="#e6b17e" data-fill-palette-color="accent"></rect><rect x="62.58" y="69.077" width="9.321" height="16.82" fill="#e6b17e" data-fill-palette-color="accent"></rect><path d="M12.615 52.43c-1.193-4.721-4.994-23.124 4.348-35.768C23.276 8.12 34.36 3.788 49.911 3.788c0.029 0 0.058 0.002 0.09 0.002 0.029 0 0.06-0.002 0.09-0.002 15.549 0 26.634 4.332 32.946 12.875 9.344 12.644 5.54 31.047 4.349 35.768h2.606c1.443-5.878 4.799-24.086-4.921-37.252C78.26 5.949 66.49 1.27 50.091 1.27c-0.03 0-0.061 0.001-0.09 0.001-0.032 0-0.061-0.001-0.09-0.001-16.4 0-28.17 4.679-34.982 13.908C5.21 28.344 8.563 46.552 10.009 52.43H12.615z" fill="#e6b17e" data-fill-palette-color="accent"></path><rect x="10.141" y="73.375" width="13.837" height="9.322" fill="#e6b17e" data-fill-palette-color="accent"></rect><rect x="10.534" y="86.032" width="9.322" height="12.698" fill="#e6b17e" data-fill-palette-color="accent"></rect><rect x="10.534" y="56.222" width="9.322" height="13.641" fill="#e6b17e" data-fill-palette-color="accent"></rect><rect x="23.978" y="89.232" width="16.82" height="9.323" fill="#e6b17e" data-fill-palette-color="accent"></rect><rect x="23.978" y="56.792" width="16.82" height="9.321" fill="#e6b17e" data-fill-palette-color="accent"></rect><rect x="28.1" y="69.077" width="9.319" height="16.82" fill="#e6b17e" data-fill-palette-color="accent"></rect></g></svg></g></svg></g></svg></g><defs></defs></svg><rect width="395.52" height="62.854358039710625" fill="none" stroke="none" visibility="hidden"></rect></g></svg></g></svg>